<?xml version="1.0" encoding="UTF-8" standalone="no"?>
<!DOCTYPE svg PUBLIC "-//W3C//DTD SVG 1.1//EN" "http://www.w3.org/Graphics/SVG/1.1/DTD/svg11.dtd">
<svg width="100%" height="100%" viewBox="0 0 1496 437" version="1.1" xmlns="http://www.w3.org/2000/svg" xmlns:xlink="http://www.w3.org/1999/xlink" xml:space="preserve" xmlns:serif="http://www.serif.com/" style="fill-rule:evenodd;clip-rule:evenodd;stroke-linejoin:round;stroke-miterlimit:2;">
    <g transform="matrix(1,0,0,1,-1504.2,-281.54)">
        <g transform="matrix(0.768212,0,0,0.768212,890.459694,-314.658959)">
            <rect x="798.921" y="776.087" width="54.672" height="560.783" style="fill:rgb(233,226,212);fill-rule:nonzero;"/>
            <path d="M1193.344,1336.87L1240.206,1336.87L1240.206,1063.617C1240.206,966.425 1183.971,909.066 1087.904,909.066C994.18,909.066 930.916,971.205 928.573,1064.414L978.559,1064.414C979.34,995.901 1021.516,953.679 1088.685,953.679C1151.168,953.679 1187.876,995.105 1187.876,1065.21L1187.876,1100.263C1147.263,1097.077 1128.518,1095.483 1103.525,1095.483C978.559,1095.483 914.514,1138.503 914.514,1220.558C914.514,1296.241 969.968,1344.837 1055.1,1344.837C1119.145,1344.837 1169.132,1312.97 1193.344,1260.391L1193.344,1336.87ZM966.843,1218.965C966.843,1160.809 1012.144,1132.926 1105.868,1132.926C1128.518,1132.926 1152.73,1133.723 1187.876,1136.909L1187.876,1174.352C1187.876,1253.221 1139.452,1304.207 1062.911,1304.207C1005.114,1304.207 966.843,1269.951 966.843,1218.965Z" style="fill:rgb(233,226,212);fill-rule:nonzero;"/>
            <path d="M1532.313,1283.494C1515.13,1290.664 1501.071,1293.851 1483.889,1293.851C1438.589,1293.851 1407.347,1271.544 1407.347,1206.219L1407.347,964.035L1536.218,964.035L1536.218,917.033L1407.347,917.033L1407.347,792.754L1352.675,792.754L1352.675,917.033L1255.826,917.033L1255.826,964.035L1352.675,964.035L1352.675,1218.168C1352.675,1308.987 1405.004,1344.837 1472.954,1344.837C1493.261,1344.837 1511.225,1341.65 1532.313,1332.887L1532.313,1283.494Z" style="fill:rgb(233,226,212);fill-rule:nonzero;"/>
            <path d="M1735.382,1344.837C1829.887,1344.837 1899.399,1288.274 1918.144,1195.065L1864.253,1195.065C1850.975,1261.984 1803.332,1301.021 1734.601,1301.021C1654.154,1301.021 1602.606,1239.678 1597.92,1140.096L1916.582,1140.096C1925.954,1005.461 1849.413,909.066 1732.258,909.066C1622.913,909.066 1543.247,1000.681 1543.247,1123.366C1543.247,1256.408 1619.789,1344.837 1735.382,1344.837ZM1731.477,952.085C1807.237,952.085 1854.88,1007.851 1859.566,1101.857L1597.92,1101.857C1604.949,1010.241 1657.278,952.085 1731.477,952.085Z" style="fill:rgb(233,226,212);fill-rule:nonzero;"/>
            <path d="M2029.832,1092.297C2029.832,1014.225 2081.38,957.662 2145.425,957.662C2212.594,957.662 2248.522,1003.071 2248.522,1083.534L2248.522,1336.87L2303.194,1336.87L2303.194,1064.414C2303.194,964.832 2247.741,909.066 2161.827,909.066C2102.468,909.066 2052.482,944.119 2025.927,995.901L2025.927,917.033L1975.16,917.033L1975.16,1336.87L2029.832,1336.87L2029.832,1092.297Z" style="fill:rgb(233,226,212);fill-rule:nonzero;"/>
            <path d="M2596.863,1283.494C2579.681,1290.664 2565.622,1293.851 2548.439,1293.851C2503.139,1293.851 2471.898,1271.544 2471.898,1206.219L2471.898,964.035L2600.768,964.035L2600.768,917.033L2471.898,917.033L2471.898,792.754L2417.225,792.754L2417.225,917.033L2320.377,917.033L2320.377,964.035L2417.225,964.035L2417.225,1218.168C2417.225,1308.987 2469.555,1344.837 2537.505,1344.837C2557.812,1344.837 2575.775,1341.65 2596.863,1332.887L2596.863,1283.494Z" style="fill:rgb(233,226,212);fill-rule:nonzero;"/>
            <path d="M2746.041,1290.664C2746.041,1260.391 2725.734,1239.678 2696.836,1239.678C2668.719,1239.678 2647.631,1260.391 2647.631,1290.664C2647.631,1319.344 2668.719,1340.853 2696.836,1340.853C2725.734,1340.853 2746.041,1319.344 2746.041,1290.664Z" style="fill:rgb(233,226,212);fill-rule:nonzero;"/>
        </g>
    </g>
</svg>
