<?xml version="1.0"?>

<svg width="100%" height="100%" viewBox="0 0 733 926" version="1.1" xmlns="http://www.w3.org/2000/svg" xmlns:xlink="http://www.w3.org/1999/xlink" xml:space="preserve" xmlns:serif="http://www.serif.com/" style="fill-rule:evenodd;clip-rule:evenodd;stroke-linejoin:round;stroke-miterlimit:2;">
    <g transform="matrix(1,0,0,1,-1900.696076,-545.218206)">
        <g transform="matrix(1,0,0,1,1545.921244,356.432244)">
            <path d="M354.775,1022.975L354.775,564.146L354.891,564.146C354.814,561.051 354.775,557.947 354.775,554.834C354.775,352.806 518.795,188.786 720.822,188.786C922.85,188.786 1086.87,352.806 1086.87,554.834C1086.87,557.947 1086.831,561.051 1086.754,564.146L1086.87,564.146L1086.87,1022.975C1086.87,1073.482 1045.865,1114.487 995.358,1114.487C944.851,1114.487 903.846,1073.482 903.846,1022.975C903.846,1073.482 862.841,1114.487 812.334,1114.487C761.828,1114.487 720.822,1073.482 720.822,1022.975C720.822,1073.482 679.817,1114.487 629.311,1114.487C578.804,1114.487 537.799,1073.482 537.799,1022.975C537.799,1073.482 496.794,1114.487 446.287,1114.487C395.78,1114.487 354.775,1073.482 354.775,1022.975ZM537.799,514.369C487.292,514.369 446.287,555.374 446.287,605.881C446.287,656.388 487.292,697.393 537.799,697.393C588.305,697.393 629.311,656.388 629.311,605.881C629.311,555.374 588.305,514.369 537.799,514.369ZM903.846,514.369C853.34,514.369 812.334,555.374 812.334,605.881C812.334,656.388 853.34,697.393 903.846,697.393C954.353,697.393 995.358,656.388 995.358,605.881C995.358,555.374 954.353,514.369 903.846,514.369Z" style="fill:rgb(233,226,212);"></path>
        </g>
    </g>
</svg>